<?xml version="1.0" standalone="no"?>
<!DOCTYPE svg PUBLIC "-//W3C//DTD SVG 20010904//EN"
 "http://www.w3.org/TR/2001/REC-SVG-20010904/DTD/svg10.dtd">
<svg version="1.0" xmlns="http://www.w3.org/2000/svg"
 width="500.000000pt" height="500.000000pt" viewBox="0 0 500.000000 500.000000"
 preserveAspectRatio="xMidYMid meet">

<g transform="translate(0.000000,500.000000) scale(0.100000,-0.100000)"
fill="#000000" stroke="none">
<path d="M810 2615 l0 -1455 205 0 205 0 0 1167 0 1168 295 -295 295 -295 -87
-87 -88 -88 -77 77 -78 78 0 -385 0 -385 422 423 423 422 -555 555 -555 555
-202 0 -203 0 0 -1455z"/>
<path d="M1835 3930 c77 -77 141 -140 142 -140 2 0 3 63 3 140 l0 140 -142 0
-143 0 140 -140z"/>
<path d="M3565 3873 l-208 -198 211 -3 212 -2 0 -590 c0 -325 -3 -590 -7 -590
-5 0 -333 325 -730 722 l-723 723 0 -245 0 -245 940 -940 940 -940 0 1253 0
1252 -214 0 -213 0 -208 -197z"/>
<path d="M2447 2572 l-127 -127 566 -565 565 -565 -82 -77 -82 -78 426 0 425
0 -236 229 c-130 126 -480 473 -777 770 -297 298 -542 541 -545 541 -3 0 -63
-57 -133 -128z"/>
<path d="M1688 1813 l-208 -208 0 -223 0 -222 703 0 702 1 -205 199 -205 199
-287 1 -288 0 -2 230 -3 230 -207 -207z"/>
</g>
</svg>
